<svg width="100" height="100" viewBox="0 0 100 100" fill="none" xmlns="http://www.w3.org/2000/svg">
<path fill-rule="evenodd" clip-rule="evenodd" d="M50 0C22.3858 0 0 22.3858 0 50C0 77.6142 22.3858 100 50 100C77.6142 100 100 77.6142 100 50C100 22.3858 77.6142 0 50 0ZM74.1028 26.7038C70.3784 26.7038 67.3591 29.7231 67.3591 33.4475C67.3591 37.1719 70.3784 40.1912 74.1028 40.1912C77.8272 40.1912 80.8465 37.1719 80.8465 33.4475C80.8465 29.7231 77.8272 26.7038 74.1028 26.7038ZM20.0585 39.2877C18.1963 36.0622 19.3014 31.9379 22.5269 30.0756C25.7523 28.2134 29.8767 29.3186 31.7389 32.544L49.4411 63.205C51.3033 66.4305 50.1982 70.5549 46.9727 72.4171C43.7473 74.2793 39.6229 73.1742 37.7607 69.9487L20.0585 39.2877ZM45.3947 39.2877C43.5325 36.0622 44.6376 31.9379 47.8631 30.0756C51.0885 28.2134 55.2129 29.3186 57.0751 32.544L74.7772 63.205C76.6395 66.4305 75.5343 70.5549 72.3089 72.4171C69.0834 74.2793 64.9591 73.1742 63.0969 69.9487L45.3947 39.2877Z" fill="#16192C"/>
</svg>
