<svg width="196" height="70" viewBox="0 0 196 70" fill="none" xmlns="http://www.w3.org/2000/svg">
<rect width="70" height="70" rx="35" fill="white"/>
<g clip-path="url(#clip0_904_284)">
<path d="M34.125 23.5132C34.2702 23.6897 34.3592 23.9056 34.3804 24.1331C34.4016 24.3606 34.3541 24.5893 34.244 24.7895C33.384 26.3684 32.9349 28.1383 32.938 29.9362C32.938 35.9175 37.814 40.7608 43.8235 40.7608C44.6074 40.7608 45.3705 40.679 46.1038 40.5228C46.3286 40.4741 46.5628 40.4927 46.7771 40.5763C46.9914 40.6599 47.1763 40.8048 47.3087 40.9928C47.4485 41.1884 47.5198 41.4246 47.5115 41.6648C47.5031 41.9051 47.4156 42.1358 47.2626 42.3212C46.0959 43.7543 44.6242 44.909 42.9546 45.701C41.285 46.4931 39.4597 46.9026 37.6117 46.8997C30.7543 46.8997 25.2 41.3751 25.2 34.5683C25.2 29.4454 28.3446 25.0513 32.822 23.1889C33.045 23.0947 33.2926 23.0753 33.5276 23.1338C33.7625 23.1923 33.9722 23.3254 34.125 23.5132Z" fill="#111827"/>
<path d="M41.2561 27.7825C41.2774 27.7181 41.3185 27.662 41.3735 27.6223C41.4285 27.5825 41.4947 27.5612 41.5625 27.5612C41.6304 27.5612 41.6965 27.5825 41.7515 27.6223C41.8065 27.662 41.8476 27.7181 41.8689 27.7825L42.4446 29.5109C42.7019 30.2815 43.3059 30.8854 44.0764 31.1427L45.8049 31.7184C45.8693 31.7397 45.9253 31.7808 45.9651 31.8358C46.0048 31.8908 46.0262 31.957 46.0262 32.0248C46.0262 32.0927 46.0048 32.1588 45.9651 32.2138C45.9253 32.2688 45.8693 32.3099 45.8049 32.3312L44.0764 32.9069C43.6964 33.0335 43.3511 33.2469 43.0678 33.5301C42.7846 33.8134 42.5712 34.1587 42.4446 34.5387L41.8689 36.2672C41.8476 36.3316 41.8065 36.3876 41.7515 36.4274C41.6965 36.4671 41.6304 36.4885 41.5625 36.4885C41.4947 36.4885 41.4285 36.4671 41.3735 36.4274C41.3185 36.3876 41.2774 36.3316 41.2561 36.2672L40.6804 34.5387C40.5538 34.1587 40.3404 33.8134 40.0572 33.5301C39.774 33.2469 39.4287 33.0335 39.0486 32.9069L37.3202 32.3312C37.2558 32.3099 37.1997 32.2688 37.16 32.2138C37.1202 32.1588 37.0988 32.0927 37.0988 32.0248C37.0988 31.957 37.1202 31.8908 37.16 31.8358C37.1997 31.7808 37.2558 31.7397 37.3202 31.7184L39.0486 31.1427C39.4287 31.0161 39.774 30.8027 40.0572 30.5195C40.3404 30.2363 40.5538 29.891 40.6804 29.5109L41.2561 27.7825ZM45.8212 23.2471C45.8359 23.2047 45.8634 23.168 45.9 23.142C45.9365 23.116 45.9802 23.1021 46.025 23.1021C46.0698 23.1021 46.1136 23.116 46.1501 23.142C46.1866 23.168 46.2141 23.2047 46.2288 23.2471L46.6126 24.3984C46.7836 24.9131 47.1868 25.3162 47.7014 25.4873L48.8528 25.871C48.8951 25.8857 48.9318 25.9132 48.9578 25.9498C48.9838 25.9863 48.9978 26.03 48.9978 26.0748C48.9978 26.1197 48.9838 26.1634 48.9578 26.1999C48.9318 26.2364 48.8951 26.2639 48.8528 26.2786L47.7014 26.6624C47.4478 26.7468 47.2173 26.8891 47.0283 27.0781C46.8393 27.2671 46.697 27.4976 46.6126 27.7512L46.2288 28.9026C46.2141 28.9449 46.1866 28.9816 46.1501 29.0076C46.1136 29.0336 46.0698 29.0476 46.025 29.0476C45.9802 29.0476 45.9365 29.0336 45.9 29.0076C45.8634 28.9816 45.8359 28.9449 45.8212 28.9026L45.4375 27.7512C45.3531 27.4976 45.2107 27.2671 45.0217 27.0781C44.8327 26.8891 44.6022 26.7468 44.3486 26.6624L43.1973 26.2786C43.1549 26.2639 43.1182 26.2364 43.0922 26.1999C43.0662 26.1634 43.0522 26.1197 43.0522 26.0748C43.0522 26.03 43.0662 25.9863 43.0922 25.9498C43.1182 25.9132 43.1549 25.8857 43.1973 25.871L44.3486 25.4873C44.8633 25.3162 45.2664 24.9131 45.4375 24.3984L45.8212 23.2486V23.2471Z" fill="#111827"/>
</g>
<path d="M86 42.384C86 45.876 88.808 48.252 93.236 48.252C97.628 48.252 100.688 46.02 100.688 42.42C100.688 39.684 99.176 38.316 96.188 37.632L92.984 36.876C91.472 36.516 90.68 35.868 90.68 34.86C90.68 33.528 91.688 32.736 93.416 32.736C95.108 32.736 96.116 33.708 96.152 35.22H100.328C100.292 31.764 97.592 29.46 93.596 29.46C89.492 29.46 86.54 31.548 86.54 35.04C86.54 37.884 88.088 39.396 91.292 40.116L94.496 40.872C96.08 41.232 96.548 41.88 96.548 42.78C96.548 44.076 95.432 44.904 93.38 44.904C91.364 44.904 90.212 43.932 90.176 42.384H86Z" fill="white"/>
<path d="M108.604 48.252C111.376 48.252 113.788 46.992 114.544 45.156L114.868 47.784H118.72V36.984C118.72 32.052 115.768 29.46 110.98 29.46C106.156 29.46 102.988 31.98 102.988 35.832H106.732C106.732 33.96 108.172 32.88 110.764 32.88C112.996 32.88 114.436 33.852 114.436 36.264V36.66L109.108 37.056C104.896 37.38 102.52 39.432 102.52 42.708C102.52 46.056 104.824 48.252 108.604 48.252ZM110.044 44.94C108.064 44.94 106.984 44.148 106.984 42.528C106.984 41.088 108.028 40.188 110.764 39.936L114.472 39.648V40.584C114.472 43.32 112.744 44.94 110.044 44.94Z" fill="white"/>
<path d="M128.117 47.784V33.672H131.573V30H128.117V24.456H123.725V30H120.305V33.672H123.725V47.784H128.117Z" fill="white"/>
<path d="M132.363 38.856C132.363 44.4 136.359 48.216 141.867 48.216C147.375 48.216 151.371 44.4 151.371 38.856C151.371 33.312 147.375 29.496 141.867 29.496C136.359 29.496 132.363 33.312 132.363 38.856ZM136.755 38.856C136.755 35.616 138.843 33.42 141.867 33.42C144.891 33.42 146.979 35.616 146.979 38.856C146.979 42.096 144.891 44.292 141.867 44.292C138.843 44.292 136.755 42.096 136.755 38.856Z" fill="white"/>
<path d="M152.765 42.384C152.765 45.876 155.573 48.252 160.001 48.252C164.393 48.252 167.453 46.02 167.453 42.42C167.453 39.684 165.941 38.316 162.953 37.632L159.749 36.876C158.237 36.516 157.445 35.868 157.445 34.86C157.445 33.528 158.453 32.736 160.181 32.736C161.873 32.736 162.881 33.708 162.917 35.22H167.093C167.057 31.764 164.357 29.46 160.361 29.46C156.257 29.46 153.305 31.548 153.305 35.04C153.305 37.884 154.853 39.396 158.057 40.116L161.261 40.872C162.845 41.232 163.313 41.88 163.313 42.78C163.313 44.076 162.197 44.904 160.145 44.904C158.129 44.904 156.977 43.932 156.941 42.384H152.765Z" fill="white"/>
<path d="M174.469 47.784V38.064C174.469 35.4 176.089 33.456 178.861 33.456C181.093 33.456 182.569 34.896 182.569 37.884V47.784H186.961V36.84C186.961 32.232 184.657 29.46 180.265 29.46C177.709 29.46 175.621 30.576 174.505 32.304V21H170.077V47.784H174.469Z" fill="white"/>
<path d="M192.752 26.436C194.192 26.436 195.38 25.248 195.38 23.772C195.38 22.296 194.192 21.144 192.752 21.144C191.24 21.144 190.052 22.296 190.052 23.772C190.052 25.248 191.24 26.436 192.752 26.436ZM190.556 47.784H194.948V30H190.556V47.784Z" fill="white"/>
<defs>
<clipPath id="clip0_904_284">
<rect x="25.2" y="23.0999" width="23.8" height="23.8" rx="11.9" fill="white"/>
</clipPath>
</defs>
</svg>
